<svg width="20" height="20" viewBox="0 0 20 20" fill="none" xmlns="http://www.w3.org/2000/svg">
<g clip-path="url(#clip0_5125_2278)">
<path d="M15.5 0H4.5C2.01472 0 0 2.01472 0 4.5V15.5C0 17.9853 2.01472 20 4.5 20H15.5C17.9853 20 20 17.9853 20 15.5V4.5C20 2.01472 17.9853 0 15.5 0Z" fill="url(#paint0_linear_5125_2278)"/>
<path fill-rule="evenodd" clip-rule="evenodd" d="M7.28151 12.9996C6.20062 12.9996 5.25901 12.2621 4.99939 11.2122L4.03665 7.3192C3.84451 6.54224 4.43212 5.79106 5.23205 5.79106H13.8583L14.1704 4.70327C14.461 3.69035 15.3894 2.99441 16.4426 3.00003L18 3.00835L17.9948 3.97914L16.4375 3.97082C15.8189 3.96752 15.2737 4.37624 15.103 4.97114L13.2883 11.2963C12.999 12.3047 12.0772 12.9996 11.0286 12.9996H7.28151ZM12.3558 11.0284L13.5798 6.76186H5.23205C5.06237 6.76186 4.93772 6.9212 4.97848 7.08601L5.94121 10.9791C6.09369 11.5956 6.6467 12.0287 7.28151 12.0287H11.0286C11.6445 12.0287 12.1858 11.6207 12.3558 11.0284ZM6.81143 13.8637C7.6524 13.8637 8.33412 14.5658 8.33412 15.4318C8.33412 16.2979 7.6524 17 6.81143 17C5.97046 17 5.28875 16.2979 5.28875 15.4318C5.28875 14.5658 5.97046 13.8637 6.81143 13.8637ZM11.4139 13.8637C12.2549 13.8637 12.9366 14.5658 12.9366 15.4318C12.9366 16.2979 12.2549 17 11.4139 17C10.573 17 9.89125 16.2979 9.89125 15.4318C9.89125 14.5658 10.573 13.8637 11.4139 13.8637Z" fill="white"/>
</g>
<defs>
<linearGradient id="paint0_linear_5125_2278" x1="17" y1="2" x2="-2.43227" y2="6.49303" gradientUnits="userSpaceOnUse">
<stop stop-color="#86D2DA"/>
<stop offset="1" stop-color="#F04D4D"/>
</linearGradient>
<clipPath id="clip0_5125_2278">
<rect width="20" height="20" fill="white"/>
</clipPath>
</defs>
</svg>
